<svg width="25" height="24" viewBox="0 0 25 24" fill="none" xmlns="http://www.w3.org/2000/svg">
<path fill-rule="evenodd" clip-rule="evenodd" d="M12.334 24C18.9614 24 24.334 18.6274 24.334 12C24.334 5.37258 18.9614 0 12.334 0C5.70657 0 0.333984 5.37258 0.333984 12C0.333984 18.6274 5.70657 24 12.334 24ZM14.747 6.7519C15.7653 6.92409 16.739 7.2269 17.6475 7.63659C17.6554 7.63975 17.6619 7.64565 17.6659 7.65322C19.2755 9.9819 20.07 12.6098 19.7731 15.6344C19.7724 15.6408 19.7703 15.647 19.7671 15.6525C19.7638 15.658 19.7594 15.6628 19.7541 15.6665C18.6744 16.4531 17.4696 17.0515 16.1904 17.4364C16.1814 17.4391 16.1718 17.439 16.1628 17.436C16.1539 17.433 16.1461 17.4274 16.1405 17.4198C15.8716 17.0511 15.6269 16.6628 15.4132 16.2549C15.4103 16.2492 15.4086 16.2431 15.4083 16.2367C15.4079 16.2304 15.4089 16.2241 15.4112 16.2182C15.4136 16.2123 15.4171 16.2069 15.4216 16.2025C15.4262 16.1981 15.4316 16.1947 15.4375 16.1925C15.8253 16.0488 16.1946 15.8761 16.5496 15.6718C16.556 15.6681 16.5613 15.6628 16.565 15.6565C16.5688 15.6502 16.571 15.643 16.5714 15.6357C16.5717 15.6283 16.5702 15.621 16.5671 15.6143C16.5639 15.6077 16.5591 15.6019 16.5532 15.5976C16.4778 15.5424 16.4036 15.4848 16.3323 15.4266C16.3258 15.4214 16.3179 15.4181 16.3096 15.4172C16.3013 15.4162 16.2929 15.4177 16.2854 15.4212C13.9811 16.4686 11.4558 16.4686 9.12419 15.4212C9.11668 15.4179 9.10837 15.4166 9.1002 15.4177C9.09202 15.4187 9.08429 15.422 9.07788 15.4272C9.00663 15.4848 8.93182 15.5424 8.857 15.5976C8.85112 15.602 8.84643 15.6079 8.84336 15.6146C8.84028 15.6213 8.83892 15.6286 8.83939 15.636C8.83986 15.6433 8.84215 15.6505 8.84605 15.6567C8.84996 15.663 8.85535 15.6682 8.86175 15.6718C9.21806 15.8744 9.58969 16.0487 9.97325 16.1931C9.97919 16.1952 9.98461 16.1986 9.98914 16.2029C9.99367 16.2073 9.99721 16.2126 9.99951 16.2184C10.0018 16.2243 10.0028 16.2306 10.0025 16.2369C10.0022 16.2432 10.0005 16.2493 9.9976 16.2549C9.78794 16.663 9.54444 17.0529 9.26966 17.4204C9.26386 17.4277 9.256 17.4331 9.24711 17.4358C9.23821 17.4386 9.22869 17.4386 9.21979 17.4358C7.94283 17.0498 6.73992 16.4517 5.66144 15.6665C5.65632 15.6626 5.65205 15.6576 5.64888 15.652C5.64572 15.6464 5.64373 15.6402 5.64304 15.6338C5.39425 13.0177 5.90072 10.3684 7.74847 7.65203C7.75302 7.64487 7.75965 7.63928 7.76747 7.636C8.6765 7.22572 9.65025 6.9229 10.6679 6.75072C10.6771 6.74926 10.6865 6.75064 10.6949 6.75467C10.7033 6.7587 10.7103 6.76519 10.7148 6.77328C10.8504 7.00973 10.9727 7.25354 11.0812 7.50359C12.1612 7.34223 13.2591 7.34223 14.3391 7.50359C14.4365 7.27797 14.5754 6.99237 14.7001 6.77328C14.7047 6.76529 14.7117 6.75894 14.7201 6.75511C14.7285 6.75129 14.7379 6.75016 14.747 6.7519ZM9.06541 12.6277C9.06541 13.4061 9.64432 14.0408 10.3461 14.0408C11.0592 14.0408 11.6268 13.4067 11.6268 12.6277C11.6381 11.854 11.0646 11.2145 10.3461 11.2145C9.63304 11.2145 9.06541 11.8487 9.06541 12.6277ZM13.8006 12.6277C13.8006 13.4061 14.3789 14.0408 15.0813 14.0408C15.8003 14.0408 16.362 13.4067 16.362 12.6277C16.3733 11.854 15.7997 11.2145 15.0813 11.2145C14.3676 11.2145 13.8006 11.8487 13.8006 12.6277Z" fill="white"/>
</svg>
