<svg width="49" height="48" viewBox="0 0 49 48" fill="none" xmlns="http://www.w3.org/2000/svg">
<path d="M37.9572 18.3653C47.225 30.6271 46.097 37.0964 34.178 48C35.7555 42.5726 35.1291 39.7357 31.2386 35.0608C27.0168 30.592 25.4911 27.9025 25.3597 22.5391C19.9791 26.5552 18.5811 29.9498 19.481 38.4C17.4418 37.2238 16.8154 36.3424 16.9615 34.2261C14.3888 38.5961 13.6241 41.4028 15.2818 48C4.50526 41.7685 2.29676 36.8318 5.20386 25.4609C6.37975 28.9271 7.13325 30.3816 8.98309 32.1392C6.88436 25.6387 7.50862 21.9115 15.2818 15.4435C22.3115 9.33502 23.171 6.06398 22.0005 0C32.3746 6.548 36.0006 11.4699 33.3382 25.4609C37.0608 24.0415 37.9403 22.3949 37.9572 18.3653Z" fill="#FEB220"/>
</svg>
