<svg width="189" height="195" viewBox="0 0 189 195" fill="none" xmlns="http://www.w3.org/2000/svg">
<path d="M106.013 42.242C113.213 51.9646 112.336 57.0943 103.077 65.7399C104.303 61.4364 103.816 59.187 100.794 55.4803C97.514 51.9368 96.3287 49.8042 96.2267 45.5515C92.0466 48.7359 90.9607 51.4276 91.6596 58.1279C90.0755 57.1953 89.589 56.4964 89.7025 54.8183C87.7038 58.2835 87.1097 60.5089 88.3975 65.7399C80.0257 60.7989 78.3101 56.8846 80.5684 47.8683C81.482 50.6166 82.0673 51.77 83.5044 53.1637C81.8741 48.0093 82.359 45.054 88.3975 39.9254C93.8586 35.0819 94.5262 32.4881 93.617 27.6799C101.676 32.872 104.493 36.7747 102.425 47.8683C105.317 46.7428 106 45.4372 106.013 42.242Z" fill="#FFA800"/>
<path d="M94.9332 79.58L90.04 84.4731L94.9332 89.3663L99.8263 84.4731L94.9332 79.58Z" fill="#FFA800"/>
<path d="M94.9332 10.38L90.04 15.2732L94.9332 20.1664L99.8263 15.2732L94.9332 10.38Z" fill="#FFA800"/>
<path d="M129.272 45.2409L98.69 75.8232L103.583 80.7164L134.166 50.1341L129.272 45.2409Z" fill="white"/>
<path d="M98.6901 23.9232L129.272 54.5056L134.166 49.6124L103.583 19.0301L98.6901 23.9232Z" fill="white"/>
<path d="M60.3332 54.5055L90.9156 23.9231L86.0224 19.0299L55.44 49.6123L60.3332 54.5055Z" fill="white"/>
<path d="M90.9155 75.8233L60.3331 45.241L55.44 50.1341L86.0223 80.7165L90.9155 75.8233Z" fill="white"/>
<path d="M113.367 153.97H77.0928H72.74V148.78H77.0928C87.1426 129.173 87.3929 105.982 77.7691 86.1627L77.0928 84.77H82.8968L95.23 100.34L107.563 84.77H113.367L112.691 86.1627C103.067 105.982 103.317 129.173 113.367 148.78H117.72V153.97H113.367Z" fill="white"/>
<path d="M16.6667 179.064C15.6214 179.448 14.6294 179.747 13.6908 179.96C12.7734 180.152 11.8881 180.248 11.0348 180.248C7.89875 180.248 5.49875 179.501 3.83475 178.008C2.19208 176.515 1.37075 174.339 1.37075 171.48V164.6H7.61075V170.776C7.61075 172.227 7.96275 173.315 8.66675 174.04C9.39208 174.744 10.4481 175.096 11.8348 175.096C12.7308 175.096 13.5734 175.011 14.3628 174.84C15.1734 174.648 15.8881 174.36 16.5068 173.976L16.6667 179.064ZM15.8028 187V164.6H22.0428V187H15.8028ZM35.4135 187.288C33.3655 187.288 31.5735 186.904 30.0375 186.136C28.5228 185.347 27.3388 184.28 26.4855 182.936C25.6535 181.571 25.2375 180.024 25.2375 178.296C25.2375 176.568 25.6428 175.032 26.4535 173.688C27.2855 172.323 28.4268 171.267 29.8775 170.52C31.3282 169.752 32.9602 169.368 34.7735 169.368C36.4802 169.368 38.0375 169.72 39.4455 170.424C40.8535 171.107 41.9735 172.12 42.8055 173.464C43.6375 174.808 44.0535 176.44 44.0535 178.36C44.0535 178.573 44.0428 178.819 44.0215 179.096C44.0002 179.373 43.9788 179.629 43.9575 179.864H30.2295V176.664H40.7255L38.4215 177.56C38.4428 176.771 38.2935 176.088 37.9735 175.512C37.6748 174.936 37.2482 174.488 36.6935 174.168C36.1602 173.848 35.5308 173.688 34.8055 173.688C34.0802 173.688 33.4402 173.848 32.8855 174.168C32.3522 174.488 31.9362 174.947 31.6375 175.544C31.3388 176.12 31.1895 176.803 31.1895 177.592V178.52C31.1895 179.373 31.3602 180.109 31.7015 180.728C32.0642 181.347 32.5762 181.827 33.2375 182.168C33.8988 182.488 34.6882 182.648 35.6055 182.648C36.4588 182.648 37.1842 182.531 37.7815 182.296C38.4002 182.04 39.0082 181.656 39.6055 181.144L42.8055 184.472C41.9735 185.389 40.9495 186.093 39.7335 186.584C38.5175 187.053 37.0775 187.288 35.4135 187.288ZM47.2668 187V169.656H53.6667L59.7148 180.984H57.1868L63.8108 169.656H69.5388L69.5708 187H64.0988V175.672L65.0268 176.312L59.6508 185.464H57.0588L51.6828 175.864L52.7388 175.576V187H47.2668ZM73.673 187V169.656H91.593V187H85.545V173.176L86.889 174.488H78.409L79.721 173.176V187H73.673ZM95.7355 187V169.656H101.784V178.744L109.048 169.656H114.648V187H108.568V177.88L101.368 187H95.7355ZM127.28 187.288C125.381 187.288 123.696 186.904 122.224 186.136C120.752 185.368 119.589 184.312 118.736 182.968C117.904 181.603 117.488 180.045 117.488 178.296C117.488 176.547 117.904 175 118.736 173.656C119.589 172.312 120.752 171.267 122.224 170.52C123.696 169.752 125.381 169.368 127.28 169.368C129.178 169.368 130.864 169.752 132.336 170.52C133.829 171.267 134.992 172.312 135.824 173.656C136.656 175 137.072 176.547 137.072 178.296C137.072 180.045 136.656 181.603 135.824 182.968C134.992 184.312 133.829 185.368 132.336 186.136C130.864 186.904 129.178 187.288 127.28 187.288ZM127.28 182.456C127.984 182.456 128.602 182.296 129.136 181.976C129.69 181.656 130.128 181.187 130.448 180.568C130.768 179.928 130.928 179.171 130.928 178.296C130.928 177.421 130.768 176.685 130.448 176.088C130.128 175.469 129.69 175 129.136 174.68C128.602 174.36 127.984 174.2 127.28 174.2C126.597 174.2 125.978 174.36 125.424 174.68C124.89 175 124.453 175.469 124.112 176.088C123.792 176.685 123.632 177.421 123.632 178.296C123.632 179.171 123.792 179.928 124.112 180.568C124.453 181.187 124.89 181.656 125.424 181.976C125.978 182.296 126.597 182.456 127.28 182.456ZM139.923 187V169.656H145.971V176.088H152.211V169.656H158.291V187H152.211V180.92H145.971V187H139.923ZM180.664 187V169.656H186.712V187H180.664ZM172.312 175.032C174.616 175.053 176.333 175.565 177.464 176.568C178.616 177.571 179.192 179 179.192 180.856C179.192 182.776 178.53 184.291 177.208 185.4C175.885 186.488 173.997 187.021 171.544 187H162.392V169.656H168.44V175.032H172.312ZM170.936 182.84C171.661 182.84 172.226 182.669 172.632 182.328C173.037 181.987 173.24 181.464 173.24 180.76C173.24 180.035 173.037 179.523 172.632 179.224C172.248 178.925 171.682 178.765 170.936 178.744H168.44V182.808L170.936 182.84Z" fill="white"/>
</svg>
