<svg width="564" height="118" viewBox="0 0 564 118" fill="none" xmlns="http://www.w3.org/2000/svg">
<path d="M34.4541 4.16H9.68609C9.68609 18.32 7.62209 27.2 4.69409 30.32H4.45409C1.57409 30.32 0.0380859 31.904 0.0380859 34.736V44.816H8.77409V38H31.2381V44.816H39.9741V34.736C39.9741 31.904 38.4381 30.32 35.5581 30.32H34.4541V4.16ZM13.2381 30.32C15.7341 28.016 17.5581 21.632 18.1821 11.792H25.7181V30.32H13.2381Z" fill="#EBEBEB"/>
<path d="M41.3027 25.808C41.3027 34.496 47.4947 38.48 55.1267 38.48C62.6627 38.48 68.9027 34.496 68.9027 25.808C68.9027 17.216 62.6627 13.232 55.1267 13.232C47.4947 13.232 41.3027 17.216 41.3027 25.808ZM49.5107 25.808C49.5107 22.208 51.7667 20.48 55.1267 20.48C58.3907 20.48 60.6467 22.208 60.6467 25.808C60.6467 29.456 58.3907 31.232 55.1267 31.232C51.7667 31.232 49.5107 29.456 49.5107 25.808Z" fill="#EBEBEB"/>
<path d="M71.881 22.304C71.881 32.528 77.113 38.48 86.617 38.48C96.985 38.48 101.353 32.816 101.353 25.52C101.353 18.512 96.121 13.232 88.633 13.232C82.681 13.232 78.697 16.592 77.305 21.872V21.248C77.305 14.576 81.145 12.272 87.529 10.928C94.009 9.584 100.825 7.616 101.689 0.559998H92.473C92.041 2.384 90.361 3.344 84.265 5.312C76.585 7.856 71.881 12.176 71.881 22.304ZM80.089 25.76C80.089 22.16 82.297 20.48 86.377 20.48C90.601 20.48 93.145 22.16 93.145 25.856C93.145 29.456 90.697 31.232 86.617 31.232C82.585 31.232 80.089 29.552 80.089 25.76Z" fill="#EBEBEB"/>
<path d="M104.986 48.08H113.194V33.344C114.538 35.888 117.082 38.48 122.41 38.48C130.282 38.48 133.594 32.72 133.594 25.904C133.594 19.04 130.282 13.232 122.41 13.232C117.37 13.232 114.682 15.584 113.194 18.368V13.712H104.986V48.08ZM113.242 25.904C113.242 22.112 115.258 20.48 119.242 20.48C123.274 20.48 125.386 22.16 125.386 25.904C125.386 29.648 123.274 31.232 119.242 31.232C115.258 31.232 113.242 29.6 113.242 25.904Z" fill="#EBEBEB"/>
<path d="M136.084 25.808C136.084 34.496 142.276 38.48 149.908 38.48C157.444 38.48 163.684 34.496 163.684 25.808C163.684 17.216 157.444 13.232 149.908 13.232C142.276 13.232 136.084 17.216 136.084 25.808ZM144.292 25.808C144.292 22.208 146.548 20.48 149.908 20.48C153.172 20.48 155.428 22.208 155.428 25.808C155.428 29.456 153.172 31.232 149.908 31.232C146.548 31.232 144.292 29.456 144.292 25.808Z" fill="#EBEBEB"/>
<path d="M180.408 13.712V38H188.616V20.96H197.592V38H205.8V13.712H180.408Z" fill="#EBEBEB"/>
<path d="M209.443 25.808C209.443 34.496 215.635 38.48 223.267 38.48C230.803 38.48 237.043 34.496 237.043 25.808C237.043 17.216 230.803 13.232 223.267 13.232C215.635 13.232 209.443 17.216 209.443 25.808ZM217.651 25.808C217.651 22.208 219.907 20.48 223.267 20.48C226.531 20.48 228.787 22.208 228.787 25.808C228.787 29.456 226.531 31.232 223.267 31.232C219.907 31.232 217.651 29.456 217.651 25.808Z" fill="#EBEBEB"/>
<path d="M263.755 13.712H255.499V22.064H255.355L248.779 15.68C247.243 14.24 245.563 13.712 243.451 13.712H239.035V20.96H242.923L248.203 25.808L238.219 38H248.395L255.499 28.976V38H263.755V28.928L270.907 38H281.035L271.051 25.856L276.331 20.96H280.219V13.712H275.803C273.691 13.712 272.011 14.24 270.523 15.68L263.755 22.064V13.712Z" fill="#EBEBEB"/>
<path d="M282.526 31.376C282.526 33.872 283.822 38.48 291.502 38.48C298.558 38.48 301.15 35.456 302.254 31.856V34.304C302.254 36.656 303.646 38 305.998 38H311.566V30.752H308.062V24.08C308.062 16.256 302.35 13.232 295.63 13.232C288.958 13.232 283.246 16.544 283.102 22.928H290.83C290.926 20.768 292.318 19.52 295.294 19.52C298.558 19.52 299.806 20.528 299.806 23.072L292.414 23.888C284.974 24.656 282.526 27.152 282.526 31.376ZM290.59 29.984C290.59 28.64 291.79 28.4 293.95 28.064L299.806 27.2C299.806 30.128 297.022 31.952 293.614 31.952C292.03 31.952 290.59 31.568 290.59 29.984Z" fill="#EBEBEB"/>
<path d="M340.561 13.712H318.721C318.721 27.248 318.145 30.752 313.969 30.752V38C324.433 38 326.449 31.76 326.833 20.96H332.305V38H340.561V13.712Z" fill="#EBEBEB"/>
<path d="M344.209 25.808C344.209 34.496 350.401 38.48 358.033 38.48C365.569 38.48 371.809 34.496 371.809 25.808C371.809 17.216 365.569 13.232 358.033 13.232C350.401 13.232 344.209 17.216 344.209 25.808ZM352.417 25.808C352.417 22.208 354.673 20.48 358.033 20.48C361.297 20.48 363.553 22.208 363.553 25.808C363.553 29.456 361.297 31.232 358.033 31.232C354.673 31.232 352.417 29.456 352.417 25.808Z" fill="#EBEBEB"/>
<path d="M375.455 38H390.095C396.287 38 400.463 36.224 400.463 31.328C400.463 27.44 397.151 25.76 393.503 25.424C396.047 24.992 398.687 23.36 398.687 19.808C398.687 14.96 394.511 13.712 388.319 13.712H375.455V38ZM383.135 32.432V28.448H390.095C391.967 28.448 392.735 28.928 392.735 30.368C392.735 31.856 391.967 32.432 390.095 32.432H383.135ZM383.135 22.784V19.28H388.319C390.191 19.28 390.959 19.76 390.959 21.056C390.959 22.448 390.191 22.784 388.319 22.784H383.135Z" fill="#EBEBEB"/>
<path d="M402.995 31.376C402.995 33.872 404.291 38.48 411.971 38.48C419.027 38.48 421.619 35.456 422.723 31.856V34.304C422.723 36.656 424.115 38 426.467 38H432.035V30.752H428.531V24.08C428.531 16.256 422.819 13.232 416.099 13.232C409.427 13.232 403.715 16.544 403.571 22.928H411.299C411.395 20.768 412.787 19.52 415.763 19.52C419.027 19.52 420.275 20.528 420.275 23.072L412.883 23.888C405.443 24.656 402.995 27.152 402.995 31.376ZM411.059 29.984C411.059 28.64 412.259 28.4 414.419 28.064L420.275 27.2C420.275 30.128 417.491 31.952 414.083 31.952C412.499 31.952 411.059 31.568 411.059 29.984Z" fill="#EBEBEB"/>
<path d="M431.539 13.712V20.96H440.707V38H448.915V20.96H458.083V13.712H431.539Z" fill="#EBEBEB"/>
<path d="M474.958 18.656H469.678V13.712H461.47V38H474.958C480.622 38 486.91 36.416 486.91 28.352C486.91 20.288 480.622 18.656 474.958 18.656ZM469.678 31.184V25.52H474.478C477.55 25.52 478.654 25.904 478.654 28.352C478.654 30.848 477.55 31.184 474.478 31.184H469.678Z" fill="#EBEBEB"/>
<path d="M503.611 13.712V38H511.819V29.408H522.955V38H531.211V13.712H522.955V22.208H511.819V13.712H503.611Z" fill="#EBEBEB"/>
<path d="M534.901 31.376C534.901 33.872 536.197 38.48 543.877 38.48C550.933 38.48 553.525 35.456 554.629 31.856V34.304C554.629 36.656 556.021 38 558.373 38H563.941V30.752H560.437V24.08C560.437 16.256 554.725 13.232 548.005 13.232C541.333 13.232 535.621 16.544 535.477 22.928H543.205C543.301 20.768 544.693 19.52 547.669 19.52C550.933 19.52 552.181 20.528 552.181 23.072L544.789 23.888C537.349 24.656 534.901 27.152 534.901 31.376ZM542.965 29.984C542.965 28.64 544.165 28.4 546.325 28.064L552.181 27.2C552.181 30.128 549.397 31.952 545.989 31.952C544.405 31.952 542.965 31.568 542.965 29.984Z" fill="#EBEBEB"/>
<path d="M72.2418 104H92.2098C104.37 104 113.906 102.4 113.906 91.84C113.906 84.8 109.682 80.896 102.13 80.192C105.522 79.552 110.578 77.376 110.578 69.76C110.578 61.056 104.37 58.88 91.7618 58.88H72.2418V104ZM83.9538 94.08V85.056H92.8498C98.6098 85.056 102.13 84.8 102.13 89.536C102.13 94.272 98.8018 94.08 92.8498 94.08H83.9538ZM83.9538 75.968V68.224H92.9138C96.7538 68.224 99.3138 68.16 99.3138 72.128C99.3138 76.224 96.4978 75.968 92.9138 75.968H83.9538Z" fill="#EBEBEB"/>
<path d="M153.425 77.184V104H164.433V81.28H180.817V71.616H159.121C155.473 71.616 153.425 73.536 153.425 77.184Z" fill="#EBEBEB"/>
<path d="M185.044 104H195.988V92.352C195.988 83.2 199.508 80.64 204.884 80.64C209.748 80.64 211.284 82.752 211.284 88.576V104H222.356V86.848C222.356 76.672 217.3 70.976 208.852 70.976C201.876 70.976 197.652 74.496 195.988 79.232V71.616H185.044V104Z" fill="#EBEBEB"/>
<path d="M227.026 104H255.378V94.336H246.226V76.992C246.226 73.408 244.178 71.616 240.658 71.616H228.178V81.28H236.114V94.336H227.026V104ZM234.002 63.296C234.002 67.072 236.498 68.8 240.402 68.8C244.306 68.8 246.994 67.072 246.994 63.296C246.994 59.584 244.306 57.792 240.402 57.792C236.498 57.792 234.002 59.584 234.002 63.296Z" fill="#EBEBEB"/>
<path d="M259.794 104H270.738V92.352C270.738 83.2 274.258 80.64 279.634 80.64C284.498 80.64 286.034 82.752 286.034 88.576V104H297.106V86.848C297.106 76.672 292.05 70.976 283.602 70.976C276.626 70.976 272.402 74.496 270.738 79.232V71.616H259.794V104Z" fill="#EBEBEB"/>
<path d="M316.426 104.64C323.146 104.64 326.73 101.504 328.714 97.856V107.904H306.378V117.568H334.026C337.61 117.568 339.658 115.776 339.658 112V71.616H328.714V77.696C326.922 74.368 323.466 70.976 316.426 70.976C305.93 70.976 301.514 78.656 301.514 87.744C301.514 96.896 305.93 104.64 316.426 104.64ZM312.458 87.744C312.458 82.752 315.274 80.64 320.65 80.64C325.962 80.64 328.65 82.816 328.65 87.744C328.65 92.8 325.962 94.976 320.65 94.976C315.274 94.976 312.458 92.736 312.458 87.744Z" fill="#EBEBEB"/>
<path d="M386.073 104.896C399.001 104.896 407.577 97.92 408.921 86.528H396.953C395.993 91.392 391.833 94.336 386.137 94.336C379.161 94.336 374.169 90.368 374.169 81.408C374.169 72.512 379.161 68.544 386.137 68.544C391.833 68.544 395.993 71.424 396.953 76.288H408.921C407.577 64.96 399.001 57.984 386.073 57.984C371.289 57.984 362.137 68.096 362.137 81.408C362.137 94.784 371.289 104.896 386.073 104.896Z" fill="#EBEBEB"/>
<path d="M426.467 104.64C433.507 104.64 437.731 101.12 439.395 96.384V104H450.339V71.616H439.395V83.264C439.395 92.416 435.875 94.976 430.499 94.976C425.635 94.976 424.035 92.864 424.035 87.04V71.616H413.027V88.768C413.027 98.944 418.083 104.64 426.467 104.64Z" fill="#EBEBEB"/>
<path d="M455.606 117.44H466.55V97.792C468.342 101.184 471.734 104.64 478.838 104.64C489.334 104.64 493.75 96.96 493.75 87.872C493.75 78.72 489.334 70.976 478.838 70.976C472.118 70.976 468.534 74.112 466.55 77.824V71.616H455.606V117.44ZM466.614 87.872C466.614 82.816 469.302 80.64 474.614 80.64C479.99 80.64 482.806 82.88 482.806 87.872C482.806 92.864 479.99 94.976 474.614 94.976C469.302 94.976 466.614 92.8 466.614 87.872Z" fill="#EBEBEB"/>
<path d="M142.849 84.2435C149.092 92.4181 148.332 96.731 140.304 104C141.366 100.382 140.945 98.4905 138.324 95.3739C135.48 92.3946 134.453 90.6016 134.364 87.0261C130.74 89.7034 129.798 91.9665 130.404 97.6C129.031 96.8159 128.609 96.2282 128.707 94.8174C126.974 97.7307 126.459 99.6019 127.576 104C120.317 99.8457 118.83 96.5546 120.788 88.9739C121.58 91.2847 122.087 92.2544 123.333 93.4261C121.92 89.0925 122.34 86.6077 127.576 82.2957C132.311 78.2233 132.89 76.0427 132.101 72C139.089 76.3653 141.531 79.6466 139.738 88.9739C142.246 88.0277 142.838 86.9299 142.849 84.2435Z" fill="#FFA800"/>
</svg>
