<svg width="41" height="48" viewBox="0 0 41 48" fill="none" xmlns="http://www.w3.org/2000/svg">
<path d="M33.9249 18.3653C43.173 30.6271 42.0475 37.0964 30.1536 48C31.7278 42.5726 31.1027 39.7357 27.2205 35.0608C23.0076 30.592 21.4851 27.9025 21.354 22.5391C15.9848 26.5552 14.5898 29.9498 15.4877 38.4C13.4528 37.2238 12.8278 36.3424 12.9736 34.2261C10.4063 38.5961 9.64327 41.4028 11.2975 48C0.543721 41.7685 -1.6601 36.8318 1.24084 25.4609C2.41424 28.9271 3.16615 30.3816 5.01208 32.1392C2.91778 25.6387 3.54072 21.9115 11.2975 15.4435C18.3122 9.33502 19.1699 6.06398 18.0019 0C28.3541 6.548 31.9724 11.4699 29.3156 25.4609C33.0304 24.0415 33.908 22.3949 33.9249 18.3653Z" fill="#FFA800"/>
</svg>
