<svg width="24" height="24" viewBox="0 0 24 24" fill="none" xmlns="http://www.w3.org/2000/svg">
<path fill-rule="evenodd" clip-rule="evenodd" d="M20.596 5.16376C20.7514 5.03965 20.9498 4.98236 21.1474 5.00449C21.3451 5.02662 21.5259 5.12636 21.65 5.28176C23.1742 7.19037 24.0031 9.56117 24 12.0037C23.9969 14.4463 23.1621 16.815 21.633 18.7198C21.5083 18.8749 21.3272 18.9742 21.1293 18.9958C20.9315 19.0173 20.7331 18.9594 20.578 18.8348C20.4228 18.7101 20.3236 18.5289 20.302 18.3311C20.2804 18.1332 20.3383 17.9349 20.463 17.7798C21.7785 16.1409 22.4968 14.1029 22.4995 12.0014C22.5022 9.89985 21.7893 7.86002 20.478 6.21776C20.3539 6.06234 20.2966 5.86398 20.3187 5.66632C20.3409 5.46866 20.4406 5.28789 20.596 5.16376ZM16.756 8.13376C16.8357 8.07581 16.926 8.03413 17.0218 8.01111C17.1177 7.98809 17.2171 7.98418 17.3144 7.99959C17.4117 8.01501 17.5051 8.04945 17.5891 8.10096C17.6731 8.15246 17.7461 8.22002 17.804 8.29976C18.583 9.37259 19.0026 10.6644 19.0026 11.9903C19.0026 13.3161 18.583 14.6079 17.804 15.6808C17.7463 15.7609 17.6734 15.829 17.5894 15.8809C17.5054 15.9328 17.4119 15.9676 17.3144 15.9834C17.2169 15.9991 17.1173 15.9954 17.0212 15.9725C16.9251 15.9496 16.8345 15.9079 16.7546 15.8499C16.6746 15.7919 16.6069 15.7187 16.5554 15.6344C16.5038 15.5502 16.4694 15.4566 16.4541 15.359C16.4388 15.2615 16.443 15.1618 16.4663 15.0658C16.4896 14.9699 16.5316 14.8794 16.59 14.7998C17.1831 13.9831 17.5026 12.9996 17.5026 11.9903C17.5026 10.9809 17.1831 9.99745 16.59 9.18076C16.4734 9.01975 16.4255 8.81902 16.4568 8.62269C16.4881 8.42637 16.5951 8.2505 16.756 8.13376ZM12 13.9998C12.5304 13.9998 13.0391 13.789 13.4142 13.414C13.7893 13.0389 14 12.5302 14 11.9998C14 11.4693 13.7893 10.9606 13.4142 10.5855C13.0391 10.2105 12.5304 9.99976 12 9.99976C11.4696 9.99976 10.9609 10.2105 10.5858 10.5855C10.2107 10.9606 10 11.4693 10 11.9998C10 12.5302 10.2107 13.0389 10.5858 13.414C10.9609 13.789 11.4696 13.9998 12 13.9998Z" fill="white"/>
<path fill-rule="evenodd" clip-rule="evenodd" d="M3.404 5.16376C3.24857 5.03965 3.05022 4.98236 2.85256 5.00449C2.6549 5.02662 2.47413 5.12636 2.35 5.28176C0.825744 7.19037 -0.00308141 9.56117 8.60892e-06 12.0037C0.00309863 14.4463 0.837919 16.815 2.36699 18.7198C2.49165 18.8749 2.67283 18.9742 2.87068 18.9958C3.06853 19.0173 3.26684 18.9594 3.422 18.8348C3.57715 18.7101 3.67643 18.5289 3.69799 18.3311C3.71956 18.1332 3.66165 17.9349 3.53699 17.7798C2.22146 16.1409 1.5032 14.1029 1.50047 12.0014C1.49775 9.89985 2.21072 7.86002 3.522 6.21776C3.6461 6.06234 3.70339 5.86398 3.68126 5.66632C3.65914 5.46866 3.5594 5.28789 3.404 5.16376ZM7.244 8.13376C7.1643 8.07581 7.07396 8.03413 6.97815 8.01111C6.88233 7.98809 6.78292 7.98418 6.6856 7.99959C6.58827 8.01501 6.49494 8.04945 6.41093 8.10096C6.32692 8.15246 6.25388 8.22002 6.196 8.29976C5.41698 9.37259 4.99743 10.6644 4.99743 11.9903C4.99743 13.3161 5.41698 14.6079 6.196 15.6808C6.25366 15.7609 6.32659 15.829 6.4106 15.8809C6.49462 15.9328 6.58806 15.9676 6.68557 15.9834C6.78308 15.9991 6.88273 15.9954 6.97881 15.9725C7.07488 15.9496 7.16549 15.9079 7.24543 15.8499C7.32536 15.7919 7.39305 15.7187 7.44461 15.6344C7.49617 15.5502 7.53059 15.4566 7.54588 15.359C7.56117 15.2615 7.55704 15.1618 7.53372 15.0658C7.5104 14.9699 7.46835 14.8794 7.41 14.7998C6.81686 13.9831 6.49741 12.9996 6.49741 11.9903C6.49741 10.9809 6.81686 9.99745 7.41 9.18076C7.52661 9.01975 7.57453 8.81902 7.54321 8.62269C7.5119 8.42637 7.40491 8.2505 7.244 8.13376ZM12 13.9998C11.4696 13.9998 10.9609 13.789 10.5858 13.414C10.2107 13.0389 10 12.5302 10 11.9998C10 11.4693 10.2107 10.9606 10.5858 10.5855C10.9609 10.2105 11.4696 9.99976 12 9.99976C12.5304 9.99976 13.0391 10.2105 13.4142 10.5855C13.7893 10.9606 14 11.4693 14 11.9998C14 12.5302 13.7893 13.0389 13.4142 13.414C13.0391 13.789 12.5304 13.9998 12 13.9998Z" fill="white"/>
</svg>
