<svg width="1441" height="1052" viewBox="0 0 1441 1052" fill="none" xmlns="http://www.w3.org/2000/svg">
<path fill-rule="evenodd" clip-rule="evenodd" d="M509.402 118.842L310.507 0L0.230957 186.752V411.703L215.038 288.616L509.402 118.842ZM0.230957 895.561L107.634 823.409L310.507 705.825L509.402 823.409L0.230957 1129V895.561Z" fill="#DCDCDC"/>
<path fill-rule="evenodd" clip-rule="evenodd" d="M509.402 118.842L310.507 0L0.230957 186.752V411.703L215.038 288.616L509.402 118.842ZM0.230957 895.561L107.634 823.409L310.507 705.825L509.402 823.409L0.230957 1129V895.561Z" fill="#E6E6E6"/>
<path d="M748.073 101.865L310.507 356.527L107.634 471.124L0.230957 534.789V768.23L215.038 649.388L859.454 271.639V356.527L1098.13 16.9775L684.43 46.688L748.073 101.865Z" fill="#E6E6E6"/>
<path d="M310.507 356.527L215.038 288.616L0.230957 411.703L107.634 471.124L310.507 356.527Z" fill="#DCDCDC"/>
<path d="M0.230957 768.23L107.634 823.409L310.507 705.825L215.038 649.388L0.230957 768.23Z" fill="#DCDCDC"/>
<path d="M701.447 788.997L717.357 712.599C633.193 726.257 597.169 719.025 588.391 684.806C578.985 648.136 597.969 607.221 629.553 586.514C657.694 568.064 690.094 568.877 741.227 581.024L757.137 500.381C634.974 483.833 564.323 485.626 500.78 576.9C478.546 608.837 467.476 647.904 470.663 686.735C480.465 806.145 559.427 805.564 701.447 788.997Z" fill="#E6E6E6"/>
<path d="M1066.31 793.693L1125.98 492.347H1241.34L1221.45 606.945L1316.91 492.347H1440.23L1316.91 632.41L1392.49 793.693H1257.25L1205.53 666.368L1181.67 793.693H1066.31Z" fill="#E6E6E6"/>
<path d="M732.162 793.693H843.544L891.282 577.234H962.884L919.124 793.693H1034.49L1094.16 492.347H791.832L732.162 793.693Z" fill="#E6E6E6"/>
</svg>
