<svg width="24" height="24" viewBox="0 0 24 24" fill="none" xmlns="http://www.w3.org/2000/svg">
<path d="M12 3.6875C11.5276 3.6875 11.0745 3.87517 10.7405 4.20922C10.4064 4.54327 10.2188 4.99633 10.2188 5.46875C10.2188 5.94117 10.4064 6.39424 10.7405 6.72828C11.0745 7.06233 11.5276 7.25 12 7.25C12.4724 7.25 12.9255 7.06233 13.2595 6.72828C13.5936 6.39424 13.7812 5.94117 13.7812 5.46875C13.7812 4.99633 13.5936 4.54327 13.2595 4.20922C12.9255 3.87517 12.4724 3.6875 12 3.6875ZM9.03125 5.46875C9.03125 4.68139 9.34403 3.92628 9.90078 3.36953C10.4575 2.81278 11.2126 2.5 12 2.5C12.7874 2.5 13.5425 2.81278 14.0992 3.36953C14.656 3.92628 14.9688 4.68139 14.9688 5.46875C14.9688 6.25611 14.656 7.01122 14.0992 7.56797C13.5425 8.12472 12.7874 8.4375 12 8.4375C11.2126 8.4375 10.4575 8.12472 9.90078 7.56797C9.34403 7.01122 9.03125 6.25611 9.03125 5.46875ZM18.5312 4.875C18.2163 4.875 17.9143 5.00011 17.6916 5.22281C17.4689 5.44551 17.3438 5.74756 17.3438 6.0625C17.3438 6.37744 17.4689 6.67949 17.6916 6.90219C17.9143 7.12489 18.2163 7.25 18.5312 7.25C18.8462 7.25 19.1482 7.12489 19.3709 6.90219C19.5936 6.67949 19.7188 6.37744 19.7188 6.0625C19.7188 5.74756 19.5936 5.44551 19.3709 5.22281C19.1482 5.00011 18.8462 4.875 18.5312 4.875ZM16.1562 6.0625C16.1562 5.43261 16.4065 4.82852 16.8519 4.38312C17.2973 3.93772 17.9014 3.6875 18.5312 3.6875C19.1611 3.6875 19.7652 3.93772 20.2106 4.38312C20.656 4.82852 20.9062 5.43261 20.9062 6.0625C20.9062 6.69239 20.656 7.29648 20.2106 7.74188C19.7652 8.18728 19.1611 8.4375 18.5312 8.4375C17.9014 8.4375 17.2973 8.18728 16.8519 7.74188C16.4065 7.29648 16.1562 6.69239 16.1562 6.0625ZM4.28125 6.0625C4.28125 5.74756 4.40636 5.44551 4.62906 5.22281C4.85176 5.00011 5.15381 4.875 5.46875 4.875C5.78369 4.875 6.08574 5.00011 6.30844 5.22281C6.53114 5.44551 6.65625 5.74756 6.65625 6.0625C6.65625 6.37744 6.53114 6.67949 6.30844 6.90219C6.08574 7.12489 5.78369 7.25 5.46875 7.25C5.15381 7.25 4.85176 7.12489 4.62906 6.90219C4.40636 6.67949 4.28125 6.37744 4.28125 6.0625ZM5.46875 3.6875C4.83886 3.6875 4.23477 3.93772 3.78937 4.38312C3.34397 4.82852 3.09375 5.43261 3.09375 6.0625C3.09375 6.69239 3.34397 7.29648 3.78937 7.74188C4.23477 8.18728 4.83886 8.4375 5.46875 8.4375C6.09864 8.4375 6.70273 8.18728 7.14813 7.74188C7.59353 7.29648 7.84375 6.69239 7.84375 6.0625C7.84375 5.43261 7.59353 4.82852 7.14813 4.38312C6.70273 3.93772 6.09864 3.6875 5.46875 3.6875ZM6.18125 17.9351C5.85971 17.9512 5.53826 17.9018 5.23642 17.7898C4.93459 17.6778 4.65867 17.5057 4.42543 17.2837C4.19219 17.0618 4.0065 16.7948 3.87965 16.4989C3.75279 16.203 3.68742 15.8844 3.6875 15.5625V11.1094C3.6875 11.0306 3.71878 10.9551 3.77445 10.8995C3.83013 10.8438 3.90564 10.8125 3.98438 10.8125H6.07912C6.12662 10.3767 6.281 9.97175 6.51256 9.625H3.98438C3.165 9.625 2.5 10.29 2.5 11.1094V15.5625C2.49994 16.0709 2.6087 16.5734 2.81896 17.0363C3.02923 17.4992 3.33612 17.9117 3.71903 18.2461C4.10194 18.5805 4.552 18.8291 5.03895 18.9752C5.52591 19.1213 6.03849 19.1614 6.54225 19.0929C6.38242 18.7204 6.26145 18.3324 6.18125 17.9351ZM17.4577 19.0929C17.9615 19.1614 18.4741 19.1213 18.961 18.9752C19.448 18.8291 19.8981 18.5805 20.281 18.2461C20.6639 17.9117 20.9708 17.4992 21.181 17.0363C21.3913 16.5734 21.5001 16.0709 21.5 15.5625V11.1094C21.5 10.29 20.835 9.625 20.0156 9.625H17.4874C17.7202 9.97175 17.8734 10.3767 17.9209 10.8125H20.0156C20.0944 10.8125 20.1699 10.8438 20.2255 10.8995C20.2812 10.9551 20.3125 11.0306 20.3125 11.1094V15.5625C20.3126 15.8844 20.2472 16.203 20.1204 16.4989C19.9935 16.7948 19.8078 17.0618 19.5746 17.2837C19.3413 17.5057 19.0654 17.6778 18.7636 17.7898C18.4617 17.9018 18.1403 17.9512 17.8187 17.9351C17.7385 18.3324 17.6176 18.7204 17.4577 19.0929ZM8.73438 9.625C7.915 9.625 7.25 10.29 7.25 11.1094V16.75C7.25 18.0098 7.75044 19.218 8.64124 20.1088C9.53204 20.9996 10.7402 21.5 12 21.5C13.2598 21.5 14.468 20.9996 15.3588 20.1088C16.2496 19.218 16.75 18.0098 16.75 16.75V11.1094C16.75 10.29 16.085 9.625 15.2656 9.625H8.73438ZM8.4375 11.1094C8.4375 11.0306 8.46878 10.9551 8.52445 10.8995C8.58013 10.8438 8.65564 10.8125 8.73438 10.8125H15.2656C15.3444 10.8125 15.4199 10.8438 15.4755 10.8995C15.5312 10.9551 15.5625 11.0306 15.5625 11.1094V16.75C15.5625 17.6948 15.1872 18.601 14.5191 19.2691C13.851 19.9372 12.9448 20.3125 12 20.3125C11.0552 20.3125 10.149 19.9372 9.48093 19.2691C8.81283 18.601 8.4375 17.6948 8.4375 16.75V11.1094Z" fill="white"/>
</svg>
