<svg width="65" height="24" viewBox="0 0 65 24" fill="none" xmlns="http://www.w3.org/2000/svg">
<path d="M17.9403 19.532L29.7483 0.108H35.6363V0.331999L21.8123 22.38C21.5777 22.7853 21.279 23.0733 20.9163 23.244C20.575 23.4147 20.1803 23.5 19.7323 23.5H16.1163C15.6683 23.5 15.263 23.4147 14.9003 23.244C14.559 23.0733 14.271 22.7853 14.0363 22.38L0.180336 0.331999V0.108H6.10034L17.9403 19.532ZM57.5988 8.524C61.8868 8.524 64.0308 10.4227 64.0308 14.22V17.804C64.0308 21.6013 61.8868 23.5 57.5988 23.5H36.9268V19.5H55.9028C57.8015 19.5 58.7508 18.6467 58.7508 16.94V14.508C58.7508 12.78 57.8015 11.916 55.9028 11.916H42.5268C38.7508 11.916 36.8628 10.348 36.8628 7.212V4.812C36.8628 1.676 38.7508 0.108 42.5268 0.108H63.1668V4.108H44.2228C42.8148 4.108 42.1108 4.62 42.1108 5.644V6.924C42.1108 7.99067 42.8148 8.524 44.2228 8.524H57.5988Z" fill="#F5F5F5"/>
</svg>
