<svg width="25" height="24" viewBox="0 0 25 24" fill="none" xmlns="http://www.w3.org/2000/svg">
<g clip-path="url(#clip0_380_2613)">
<path d="M14.5901 11.7996L11.8949 10.542C11.6597 10.4328 11.4665 10.5552 11.4665 10.8156V13.1844C11.4665 13.4448 11.6597 13.5672 11.8949 13.458L14.5889 12.2004C14.8253 12.09 14.8253 11.91 14.5901 11.7996ZM12.6665 0.480011C6.30408 0.480011 1.14648 5.63761 1.14648 12C1.14648 18.3624 6.30408 23.52 12.6665 23.52C19.0289 23.52 24.1865 18.3624 24.1865 12C24.1865 5.63761 19.0289 0.480011 12.6665 0.480011ZM12.6665 16.68C6.76969 16.68 6.66648 16.1484 6.66648 12C6.66648 7.85161 6.76969 7.32001 12.6665 7.32001C18.5633 7.32001 18.6665 7.85161 18.6665 12C18.6665 16.1484 18.5633 16.68 12.6665 16.68Z" fill="white"/>
</g>
<defs>
<clipPath id="clip0_380_2613">
<rect width="24" height="24" fill="white" transform="translate(0.666016)"/>
</clipPath>
</defs>
</svg>
