<svg width="350" height="419" viewBox="0 0 350 419" fill="none" xmlns="http://www.w3.org/2000/svg">
<g clip-path="url(#clip0_22_1478)">
<path d="M296.022 160.371C376.719 267.01 366.898 323.272 263.115 418.098C276.851 370.897 271.397 346.225 237.521 305.569C200.761 266.704 187.476 243.314 186.332 196.67C139.481 231.597 127.309 261.119 135.144 334.609C117.388 324.38 111.934 316.714 113.206 298.309C90.8048 336.314 84.1467 360.724 98.5809 418.098C4.74619 363.904 -14.4838 320.971 10.8291 222.08C21.0679 252.225 27.6289 264.875 43.736 280.16C25.4617 223.627 30.8973 191.212 98.5809 134.961C159.79 81.837 167.274 53.3895 157.082 0.652344C247.413 57.5989 278.985 100.404 255.803 222.08C288.217 209.736 295.875 195.416 296.022 160.371Z" fill="#FFA800"/>
</g>
<defs>
<clipPath id="clip0_22_1478">
<rect width="350" height="419" fill="white"/>
</clipPath>
</defs>
</svg>
