<svg width="24" height="24" viewBox="0 0 24 24" fill="none" xmlns="http://www.w3.org/2000/svg">
<path d="M5.25 2.75C5.25 2.02065 5.53973 1.32118 6.05546 0.805456C6.57118 0.289731 7.27065 0 8 0H16C16.7293 0 17.4288 0.289731 17.9445 0.805456C18.4603 1.32118 18.75 2.02065 18.75 2.75V3H21C21.966 3 22.75 3.784 22.75 4.75V7.75C22.75 8.87354 22.3051 9.95138 21.5126 10.7478C20.7201 11.5442 19.6445 11.9944 18.521 12C18.1685 13.3106 17.4294 14.4847 16.4 15.3692C15.3706 16.2537 14.0987 16.8077 12.75 16.959V19H15.5C16.362 19 17.1886 19.3424 17.7981 19.9519C18.4076 20.5614 18.75 21.388 18.75 22.25V22.75C18.75 23.44 18.19 24 17.5 24H6.5C5.81 24 5.25 23.44 5.25 22.75V22.25C5.25 21.388 5.59241 20.5614 6.2019 19.9519C6.8114 19.3424 7.63805 19 8.5 19H11.25V16.959C9.90114 16.8076 8.62914 16.2535 7.59976 15.3688C6.57038 14.4841 5.83136 13.3098 5.479 11.999C4.35565 11.9934 3.28018 11.5434 2.48772 10.7472C1.69525 9.95094 1.25025 8.87337 1.25 7.75V4.75C1.25 3.784 2.034 3 3 3H5.25V2.75ZM5.25 4.5H3C2.9337 4.5 2.87011 4.52634 2.82322 4.57322C2.77634 4.62011 2.75 4.6837 2.75 4.75V7.75C2.74974 8.43694 3.00659 9.0991 3.47 9.60618C3.93341 10.1133 4.56982 10.4286 5.254 10.49C5.25127 10.41 5.24993 10.33 5.25 10.25V4.5ZM18.746 10.49C19.4302 10.4286 20.0666 10.1133 20.53 9.60618C20.9934 9.0991 21.2503 8.43694 21.25 7.75V4.75C21.25 4.6837 21.2237 4.62011 21.1768 4.57322C21.1299 4.52634 21.0663 4.5 21 4.5H18.75V10.25C18.75 10.33 18.749 10.41 18.746 10.49ZM8 1.5C7.31 1.5 6.75 2.06 6.75 2.75V10.25C6.75 10.9394 6.8858 11.6221 7.14963 12.2591C7.41347 12.896 7.80018 13.4748 8.28769 13.9623C8.7752 14.4498 9.35395 14.8365 9.99091 15.1004C10.6279 15.3642 11.3106 15.5 12 15.5C12.6894 15.5 13.3721 15.3642 14.0091 15.1004C14.646 14.8365 15.2248 14.4498 15.7123 13.9623C16.1998 13.4748 16.5865 12.896 16.8504 12.2591C17.1142 11.6221 17.25 10.9394 17.25 10.25V2.75C17.25 2.06 16.69 1.5 16 1.5H8ZM6.75 22.25V22.5H17.25V22.25C17.25 21.7859 17.0656 21.3408 16.7374 21.0126C16.4092 20.6844 15.9641 20.5 15.5 20.5H8.5C8.03587 20.5 7.59075 20.6844 7.26256 21.0126C6.93437 21.3408 6.75 21.7859 6.75 22.25Z" fill="white"/>
</svg>
