<svg width="24" height="24" viewBox="0 0 24 24" fill="none" xmlns="http://www.w3.org/2000/svg">
<g clip-path="url(#clip0_225_1034)">
<path d="M7.50031 18C7.50031 17.5156 7.61359 17.0898 7.84015 16.7227C8.06671 16.3555 8.36359 16.043 8.73078 15.7852C9.09796 15.5273 9.50031 15.332 9.93781 15.1992C10.3753 15.0664 10.8128 15 11.2503 15C11.68 15 12.1136 15.0664 12.5511 15.1992C12.9886 15.332 13.3909 15.5234 13.7581 15.7734C14.1253 16.0234 14.4222 16.3359 14.6487 16.7109C14.8753 17.0859 14.9925 17.5156 15.0003 18H7.50031ZM17.6253 19.5C17.7269 19.5 17.8128 19.5352 17.8831 19.6055C17.9534 19.6758 17.9925 19.7656 18.0003 19.875V22.5H4.50031V19.875C4.50031 19.7734 4.53546 19.6875 4.60578 19.6172C4.67609 19.5469 4.76593 19.5078 4.87531 19.5H17.6253ZM21.0003 3C21.2112 3 21.4066 3.03906 21.5862 3.11719C21.7659 3.19531 21.9222 3.30078 22.055 3.43359C22.1878 3.56641 22.2972 3.72656 22.3831 3.91406C22.4691 4.10156 22.5081 4.29688 22.5003 4.5V6.75C22.5003 7.51562 22.3597 8.21875 22.0784 8.85938C21.7972 9.5 21.4144 10.0508 20.93 10.5117C20.4456 10.9727 19.8714 11.3359 19.2073 11.6016C18.5433 11.8672 17.8402 12 17.098 12C16.7777 12.4844 16.4027 12.9141 15.973 13.2891C15.5433 13.6641 15.0706 13.9766 14.555 14.2266C14.0394 14.4766 13.5042 14.668 12.9495 14.8008C12.3948 14.9336 11.8284 15 11.2503 15C10.6722 15 10.1058 14.9375 9.55109 14.8125C8.9964 14.6875 8.46125 14.4961 7.94562 14.2383C7.43 13.9805 6.96125 13.6641 6.53937 13.2891C6.1175 12.9141 5.73859 12.4844 5.40265 12C4.65265 12 3.94953 11.8711 3.29328 11.6133C2.63703 11.3555 2.06671 10.9922 1.58234 10.5234C1.09796 10.0547 0.711246 9.5 0.422183 8.85938C0.133121 8.21875 -0.00750411 7.51562 0.000308388 6.75V4.5C0.000308388 4.28906 0.0393709 4.09375 0.117496 3.91406C0.195621 3.73438 0.30109 3.57812 0.433902 3.44531C0.566715 3.3125 0.726871 3.20312 0.914371 3.11719C1.10187 3.03125 1.29718 2.99219 1.50031 3H4.50031V1.5H18.0003V3H21.0003ZM4.50031 4.5H1.50031V6.75C1.50031 7.19531 1.57453 7.62109 1.72296 8.02734C1.8714 8.43359 2.07843 8.79688 2.34406 9.11719C2.60968 9.4375 2.92609 9.71484 3.29328 9.94922C3.66046 10.1836 4.06281 10.3438 4.50031 10.4297V4.5ZM21.0003 4.5H18.0003V10.4297C18.4378 10.3359 18.8402 10.1758 19.2073 9.94922C19.5745 9.72266 19.8909 9.44922 20.1566 9.12891C20.4222 8.80859 20.6292 8.44141 20.7777 8.02734C20.9261 7.61328 21.0003 7.1875 21.0003 6.75V4.5Z" fill="white"/>
</g>
<defs>
<clipPath id="clip0_225_1034">
<rect width="24" height="24" fill="white"/>
</clipPath>
</defs>
</svg>
